<svg width="200" height="200" viewBox="0 0 200 200" fill="none" xmlns="http://www.w3.org/2000/svg">
<circle cx="100" cy="100" r="100" fill="#00BDD3"/>
<circle cx="100" cy="100" r="99.5" stroke="black" stroke-opacity="0.87"/>
<path fill-rule="evenodd" clip-rule="evenodd" d="M133.333 33.4242C133.333 32.3833 134.461 31.7333 135.361 32.2545L162.843 48.1546C163.743 48.6751 163.743 49.9736 162.843 50.494L135.361 66.3942C134.461 66.9154 133.333 66.2653 133.333 65.2245V55.644H98.6487V43.0047H133.333V33.4242Z" fill="#9AF4FF"/>
<path d="M133.833 33.4239C133.833 32.8094 134.458 32.4108 135.003 32.6338L135.111 32.6875L162.593 48.5869C163.124 48.8943 163.157 49.6329 162.693 49.9942L162.593 50.0616L135.111 65.961C134.543 66.2891 133.833 65.8802 133.833 65.2246V55.1436H99.1487V43.5049H133.833V33.4239Z" stroke="black" stroke-opacity="0.87"/>
<path fill-rule="evenodd" clip-rule="evenodd" d="M133.333 136.127C133.333 135.086 134.461 134.436 135.361 134.957L162.843 150.857C163.743 151.378 163.743 152.676 162.843 153.197L135.361 169.097C134.461 169.618 133.333 168.968 133.333 167.927V158.347H98.6487V145.707H133.333V136.127Z" fill="#9AF4FF"/>
<path d="M133.833 136.127C133.833 135.512 134.458 135.114 135.003 135.337L135.111 135.39L162.593 151.29C163.124 151.597 163.157 152.336 162.693 152.697L162.593 152.764L135.111 168.664C134.543 168.992 133.833 168.583 133.833 167.927V157.846H99.1487V146.208H133.833V136.127Z" stroke="black" stroke-opacity="0.87"/>
<path fill-rule="evenodd" clip-rule="evenodd" d="M161.712 84.7755C161.712 83.7347 162.839 83.0846 163.74 83.6058L191.222 99.506C192.121 100.026 192.121 101.325 191.222 101.845L163.74 117.746C162.839 118.267 161.712 117.617 161.712 116.576V106.995H127.027V94.356H161.712V84.7755Z" fill="#9AF4FF"/>
<path d="M162.212 84.7752C162.212 84.1607 162.836 83.7622 163.381 83.9852L163.489 84.0389L190.971 99.9383C191.503 100.246 191.536 100.984 191.071 101.346L190.971 101.413L163.489 117.312C162.921 117.64 162.212 117.232 162.212 116.576V106.495H127.527V94.8563H162.212V84.7752Z" stroke="black" stroke-opacity="0.87"/>
<rect x="17.5676" y="18.9189" width="87.8378" height="160.811" rx="10.8108" fill="#F4E041"/>
<rect x="18.0676" y="19.4189" width="86.8378" height="159.811" rx="10.3108" stroke="black" stroke-opacity="0.87"/>
<rect x="27.0271" y="28.3784" width="68.9189" height="13.5135" rx="6.75676" fill="white"/>
<rect x="27.5271" y="28.8784" width="67.9189" height="12.5135" rx="6.25676" stroke="black" stroke-opacity="0.87"/>
<rect x="27.0271" y="47.2973" width="68.9189" height="13.5135" rx="6.75676" fill="white"/>
<rect x="27.5271" y="47.7973" width="67.9189" height="12.5135" rx="6.25676" stroke="black" stroke-opacity="0.87"/>
<rect x="27.0271" y="66.2162" width="68.9189" height="13.5135" rx="6.75676" fill="white"/>
<rect x="27.5271" y="66.7162" width="67.9189" height="12.5135" rx="6.25676" stroke="black" stroke-opacity="0.87"/>
<rect x="27.0271" y="141.892" width="68.9189" height="13.5135" rx="6.75676" fill="white"/>
<rect x="27.5271" y="142.392" width="67.9189" height="12.5135" rx="6.25676" stroke="black" stroke-opacity="0.87"/>
<rect x="41.892" y="160.811" width="40.5405" height="10.8108" rx="5.40541" fill="white"/>
<rect x="42.392" y="161.311" width="39.5405" height="9.81081" rx="4.90541" stroke="black" stroke-opacity="0.87"/>
<rect x="27.0271" y="86.4865" width="27.027" height="5.40541" rx="2.7027" fill="white"/>
<rect x="27.5271" y="86.9865" width="26.027" height="4.40541" rx="2.2027" stroke="black" stroke-opacity="0.87"/>
<rect x="37.8379" y="97.2973" width="27.027" height="5.40541" rx="2.7027" fill="white"/>
<rect x="38.3379" y="97.7973" width="26.027" height="4.40541" rx="2.2027" stroke="black" stroke-opacity="0.87"/>
<rect x="27.0271" y="97.2973" width="5.40541" height="5.40541" rx="2.7027" fill="white"/>
<rect x="27.5271" y="97.7973" width="4.40541" height="4.40541" rx="2.2027" stroke="black" stroke-opacity="0.87"/>
<rect x="37.8379" y="108.108" width="27.027" height="5.40541" rx="2.7027" fill="white"/>
<rect x="38.3379" y="108.608" width="26.027" height="4.40541" rx="2.2027" stroke="black" stroke-opacity="0.87"/>
<rect x="27.0271" y="108.108" width="5.40541" height="5.40541" rx="2.7027" fill="white"/>
<rect x="27.5271" y="108.608" width="4.40541" height="4.40541" rx="2.2027" stroke="black" stroke-opacity="0.87"/>
<rect x="37.8379" y="118.919" width="27.027" height="5.40541" rx="2.7027" fill="white"/>
<rect x="38.3379" y="119.419" width="26.027" height="4.40541" rx="2.2027" stroke="black" stroke-opacity="0.87"/>
<rect x="27.0271" y="118.919" width="5.40541" height="5.40541" rx="2.7027" fill="white"/>
<rect x="27.5271" y="119.419" width="4.40541" height="4.40541" rx="2.2027" stroke="black" stroke-opacity="0.87"/>
<rect x="37.8379" y="129.73" width="27.027" height="5.40541" rx="2.7027" fill="white"/>
<rect x="38.3379" y="130.23" width="26.027" height="4.40541" rx="2.2027" stroke="black" stroke-opacity="0.87"/>
<rect x="27.0271" y="129.73" width="5.40541" height="5.40541" rx="2.7027" fill="white"/>
<rect x="27.5271" y="130.23" width="4.40541" height="4.40541" rx="2.2027" stroke="black" stroke-opacity="0.87"/>
<path d="M140.936 99.4727C140.936 119.332 124.827 135.432 104.956 135.432C85.0843 135.432 68.9755 119.332 68.9755 99.4727C68.9755 79.613 85.0843 63.5135 104.956 63.5135C124.827 63.5135 140.936 79.613 140.936 99.4727Z" fill="#38DA6F"/>
<path d="M104.956 64.0135C124.551 64.0137 140.435 79.8894 140.435 99.4725C140.435 119.056 124.551 134.931 104.956 134.931C85.3605 134.931 69.4755 119.056 69.4755 99.4725C69.4756 79.8893 85.3606 64.0135 104.956 64.0135Z" stroke="black" stroke-opacity="0.87"/>
<path d="M97.6835 110.127L89.1342 101.498C88.1816 100.537 86.6671 100.537 85.7145 101.498C84.7618 102.46 84.7618 103.988 85.7145 104.95L95.9492 115.279C96.9018 116.24 98.4407 116.24 99.3934 115.279L125.286 89.1724C126.238 88.2109 126.238 86.6825 125.286 85.7211C124.333 84.7596 122.818 84.7596 121.866 85.7211L97.6835 110.127Z" fill="white"/>
<path d="M121.502 85.1338C122.724 84.0184 124.587 84.0554 125.766 85.2451L125.876 85.3623C126.978 86.5914 126.941 88.461 125.766 89.6475V89.6484L99.873 115.755C98.6942 116.944 96.809 116.981 95.5859 115.866L95.4697 115.755L85.2344 105.425C84.0211 104.2 84.0209 102.247 85.2344 101.022C86.4513 99.7944 88.3973 99.7944 89.6143 101.022L97.6826 109.166L121.386 85.2451L121.502 85.1338Z" stroke="black" stroke-opacity="0.87" stroke-width="1.35135"/>
</svg>
