<svg width="35" height="17" viewBox="0 0 35 17" fill="none" xmlns="http://www.w3.org/2000/svg">
<path d="M1.90723 16.5488C1.23275 16.5488 0.75651 16.4463 0.478516 16.2412C0.200521 16.0407 0.0615234 15.7399 0.0615234 15.3389C0.0615234 14.8877 0.173177 14.4137 0.396484 13.917C0.619792 13.4202 0.941081 12.9395 1.36035 12.4746C1.78418 12.0052 2.29688 11.5814 2.89844 11.2031C3.50456 10.8203 4.19271 10.5173 4.96289 10.2939C5.73307 10.0706 6.57389 9.95898 7.48535 9.95898C8.40137 9.95898 9.24447 10.0706 10.0146 10.2939C10.7848 10.5173 11.4707 10.8203 12.0723 11.2031C12.6784 11.5814 13.1934 12.0052 13.6172 12.4746C14.041 12.9395 14.3623 13.4202 14.5811 13.917C14.8044 14.4137 14.916 14.8877 14.916 15.3389C14.916 15.7399 14.777 16.0407 14.499 16.2412C14.221 16.4463 13.7448 16.5488 13.0703 16.5488H1.90723ZM7.49219 8.38672C6.84961 8.38672 6.26172 8.21582 5.72852 7.87402C5.19531 7.52767 4.76693 7.06283 4.44336 6.47949C4.12435 5.8916 3.96484 5.23079 3.96484 4.49707C3.96484 3.96842 4.05599 3.47396 4.23828 3.01367C4.42513 2.54883 4.68034 2.14323 5.00391 1.79688C5.33203 1.44596 5.71029 1.17253 6.13867 0.976562C6.56706 0.780599 7.01823 0.682617 7.49219 0.682617C7.97526 0.682617 8.42871 0.780599 8.85254 0.976562C9.27637 1.16797 9.65007 1.43685 9.97363 1.7832C10.3018 2.12956 10.5592 2.53288 10.7461 2.99316C10.9329 3.45345 11.0264 3.9502 11.0264 4.4834C11.0264 5.22168 10.8646 5.88477 10.541 6.47266C10.222 7.06055 9.79362 7.52767 9.25586 7.87402C8.72266 8.21582 8.13477 8.38672 7.49219 8.38672ZM17.5068 9.95898C18.4183 9.95898 19.2591 10.0706 20.0293 10.2939C20.7995 10.5173 21.4854 10.8203 22.0869 11.2031C22.693 11.5814 23.2057 12.0052 23.625 12.4746C24.0488 12.9395 24.3724 13.4202 24.5957 13.917C24.819 14.4137 24.9307 14.8877 24.9307 15.3389C24.9307 15.7399 24.7917 16.0407 24.5137 16.2412C24.2357 16.4463 23.7572 16.5488 23.0781 16.5488H15.7295C15.9346 16.2161 16.0371 15.8128 16.0371 15.3389C16.0371 14.4958 15.8092 13.6891 15.3535 12.9189C14.9023 12.1488 14.2985 11.4674 13.542 10.875C14.0934 10.597 14.6995 10.376 15.3604 10.2119C16.0257 10.0433 16.7412 9.95898 17.5068 9.95898ZM17.5068 8.38672C16.8688 8.38672 16.2809 8.21582 15.7432 7.87402C15.21 7.52767 14.7816 7.06283 14.458 6.47949C14.139 5.8916 13.9795 5.23079 13.9795 4.49707C13.9749 3.96842 14.0661 3.47396 14.2529 3.01367C14.4398 2.54883 14.695 2.14323 15.0186 1.79688C15.3467 1.44596 15.7227 1.17253 16.1465 0.976562C16.5749 0.780599 17.0283 0.682617 17.5068 0.682617C17.9899 0.682617 18.4434 0.780599 18.8672 0.976562C19.291 1.16797 19.6647 1.43685 19.9883 1.7832C20.3164 2.12956 20.5739 2.53288 20.7607 2.99316C20.9476 3.45345 21.041 3.9502 21.041 4.4834C21.041 5.22168 20.8792 5.88477 20.5557 6.47266C20.2367 7.06055 19.8083 7.52767 19.2705 7.87402C18.7373 8.21582 18.1494 8.38672 17.5068 8.38672ZM27.5078 9.95898C28.4193 9.95898 29.2578 10.0706 30.0234 10.2939C30.7936 10.5173 31.4818 10.8203 32.0879 11.2031C32.694 11.5814 33.2067 12.0052 33.626 12.4746C34.0498 12.9395 34.3734 13.4202 34.5967 13.917C34.82 14.4137 34.9316 14.8877 34.9316 15.3389C34.9316 15.7399 34.7926 16.0407 34.5146 16.2412C34.2367 16.4463 33.7604 16.5488 33.0859 16.5488H25.7373C25.9469 16.2161 26.0518 15.8128 26.0518 15.3389C26.0518 14.4958 25.8239 13.6891 25.3682 12.9189C24.917 12.1442 24.3109 11.4606 23.5498 10.8682C24.0967 10.5947 24.7005 10.376 25.3613 10.2119C26.0267 10.0433 26.7422 9.95898 27.5078 9.95898ZM27.5146 8.38672C26.8721 8.38672 26.2819 8.21582 25.7441 7.87402C25.2109 7.52767 24.7826 7.06283 24.459 6.47949C24.14 5.8916 23.9805 5.23079 23.9805 4.49707C23.9759 3.96842 24.0671 3.47396 24.2539 3.01367C24.4408 2.54883 24.6982 2.14323 25.0264 1.79688C25.3545 1.44596 25.7305 1.17253 26.1543 0.976562C26.5781 0.780599 27.0316 0.682617 27.5146 0.682617C27.9932 0.682617 28.4443 0.780599 28.8682 0.976562C29.292 1.16797 29.6657 1.43685 29.9893 1.7832C30.3174 2.12956 30.5749 2.53288 30.7617 2.99316C30.9486 3.45345 31.042 3.9502 31.042 4.4834C31.042 5.22168 30.8802 5.88477 30.5566 6.47266C30.2376 7.06055 29.8092 7.52767 29.2715 7.87402C28.7383 8.21582 28.1527 8.38672 27.5146 8.38672Z" fill="#00BDD3"/>
</svg>
