<svg width="200" height="200" viewBox="0 0 200 200" fill="none" xmlns="http://www.w3.org/2000/svg">
<circle cx="100" cy="100" r="100" fill="#00BDD3"/>
<circle cx="100" cy="100" r="99.5" stroke="black" stroke-opacity="0.87"/>
<path fill-rule="evenodd" clip-rule="evenodd" d="M68.5585 33.4242C68.5585 32.3833 67.4313 31.7333 66.5304 32.2545L39.0486 48.1546C38.1492 48.6751 38.1492 49.9736 39.0486 50.494L66.5304 66.3942C67.4313 66.9154 68.5585 66.2653 68.5585 65.2245V55.644H103.243V43.0047H68.5585V33.4242Z" fill="#9AF4FF"/>
<path d="M68.0586 33.4239C68.0584 32.8094 67.4342 32.4108 66.8887 32.6338L66.7812 32.6875L39.2988 48.5869C38.7676 48.8943 38.7345 49.6329 39.1992 49.9942L39.2988 50.0616L66.7812 65.961C67.3487 66.2891 68.0585 65.8802 68.0586 65.2246V55.1436H102.743V43.5049H68.0586V33.4239Z" stroke="black" stroke-opacity="0.87"/>
<path fill-rule="evenodd" clip-rule="evenodd" d="M68.5585 136.127C68.5585 135.086 67.4313 134.436 66.5304 134.957L39.0486 150.857C38.1492 151.378 38.1492 152.676 39.0486 153.197L66.5304 169.097C67.4313 169.618 68.5585 168.968 68.5585 167.927V158.347H103.243V145.707H68.5585V136.127Z" fill="#9AF4FF"/>
<path d="M68.0586 136.127C68.0584 135.512 67.4342 135.114 66.8887 135.337L66.7812 135.39L39.2988 151.29C38.7676 151.597 38.7345 152.336 39.1992 152.697L39.2988 152.764L66.7812 168.664C67.3487 168.992 68.0585 168.583 68.0586 167.927V157.846H102.743V146.208H68.0586V136.127Z" stroke="black" stroke-opacity="0.87"/>
<path fill-rule="evenodd" clip-rule="evenodd" d="M40.1801 84.7755C40.1801 83.7347 39.0529 83.0846 38.152 83.6058L10.6702 99.506C9.77074 100.026 9.77074 101.325 10.6702 101.845L38.152 117.746C39.0529 118.267 40.1801 117.617 40.1801 116.576V106.995H74.8647V94.356H40.1801V84.7755Z" fill="#9AF4FF"/>
<path d="M39.6802 84.7752C39.68 84.1607 39.0558 83.7622 38.5103 83.9852L38.4028 84.0389L10.9204 99.9383C10.3892 100.246 10.3561 100.984 10.8208 101.346L10.9204 101.413L38.4028 117.312C38.9703 117.64 39.6801 117.232 39.6802 116.576V106.495H74.3647V94.8563H39.6802V84.7752Z" stroke="black" stroke-opacity="0.87"/>
<rect x="94" y="18.9189" width="87.8378" height="160.811" rx="10.8108" fill="#D7D7D7"/>
<rect x="94.5" y="19.4189" width="86.8378" height="159.811" rx="10.3108" stroke="black" stroke-opacity="0.87"/>
<rect x="103.459" y="28.3784" width="68.9189" height="13.5135" rx="6.75676" fill="white"/>
<rect x="103.959" y="28.8784" width="67.9189" height="12.5135" rx="6.25676" stroke="black" stroke-opacity="0.87"/>
<rect x="103.459" y="47.2973" width="68.9189" height="13.5135" rx="6.75676" fill="white"/>
<rect x="103.959" y="47.7973" width="67.9189" height="12.5135" rx="6.25676" stroke="black" stroke-opacity="0.87"/>
<rect x="103.459" y="66.2162" width="68.9189" height="13.5135" rx="6.75676" fill="white"/>
<rect x="103.959" y="66.7162" width="67.9189" height="12.5135" rx="6.25676" stroke="black" stroke-opacity="0.87"/>
<rect x="103.459" y="141.892" width="68.9189" height="13.5135" rx="6.75676" fill="white"/>
<rect x="103.959" y="142.392" width="67.9189" height="12.5135" rx="6.25676" stroke="black" stroke-opacity="0.87"/>
<rect x="118.324" y="160.811" width="40.5405" height="10.8108" rx="5.40541" fill="white"/>
<rect x="118.824" y="161.311" width="39.5405" height="9.81081" rx="4.90541" stroke="black" stroke-opacity="0.87"/>
<rect x="103.459" y="86.4865" width="27.027" height="5.40541" rx="2.7027" fill="white"/>
<rect x="103.959" y="86.9865" width="26.027" height="4.40541" rx="2.2027" stroke="black" stroke-opacity="0.87"/>
<rect x="114.27" y="97.2973" width="27.027" height="5.40541" rx="2.7027" fill="white"/>
<rect x="114.77" y="97.7973" width="26.027" height="4.40541" rx="2.2027" stroke="black" stroke-opacity="0.87"/>
<rect x="103.459" y="97.2973" width="5.40541" height="5.40541" rx="2.7027" fill="white"/>
<rect x="103.959" y="97.7973" width="4.40541" height="4.40541" rx="2.2027" stroke="black" stroke-opacity="0.87"/>
<rect x="114.27" y="108.108" width="27.027" height="5.40541" rx="2.7027" fill="white"/>
<rect x="114.77" y="108.608" width="26.027" height="4.40541" rx="2.2027" stroke="black" stroke-opacity="0.87"/>
<rect x="103.459" y="108.108" width="5.40541" height="5.40541" rx="2.7027" fill="white"/>
<rect x="103.959" y="108.608" width="4.40541" height="4.40541" rx="2.2027" stroke="black" stroke-opacity="0.87"/>
<rect x="114.27" y="118.919" width="27.027" height="5.40541" rx="2.7027" fill="white"/>
<rect x="114.77" y="119.419" width="26.027" height="4.40541" rx="2.2027" stroke="black" stroke-opacity="0.87"/>
<rect x="103.459" y="118.919" width="5.40541" height="5.40541" rx="2.7027" fill="white"/>
<rect x="103.959" y="119.419" width="4.40541" height="4.40541" rx="2.2027" stroke="black" stroke-opacity="0.87"/>
<rect x="114.27" y="129.73" width="27.027" height="5.40541" rx="2.7027" fill="white"/>
<rect x="114.77" y="130.23" width="26.027" height="4.40541" rx="2.2027" stroke="black" stroke-opacity="0.87"/>
<rect x="103.459" y="129.73" width="5.40541" height="5.40541" rx="2.7027" fill="white"/>
<rect x="103.959" y="130.23" width="4.40541" height="4.40541" rx="2.2027" stroke="black" stroke-opacity="0.87"/>
<circle cx="100" cy="100" r="35" fill="#FF4D4D" stroke="black" stroke-opacity="0.87"/>
<mask id="path-40-inside-1_142_1657" fill="white">
<path fill-rule="evenodd" clip-rule="evenodd" d="M83.9922 84.4586C82.4521 85.9987 82.4521 88.4957 83.9922 90.0358L94.4494 100.493L83.9922 110.95C82.4521 112.49 82.4521 114.987 83.9922 116.527C85.5323 118.067 88.0292 118.067 89.5693 116.527L100.027 106.07L110.484 116.527C112.024 118.067 114.521 118.067 116.061 116.527C117.601 114.987 117.601 112.49 116.061 110.95L105.604 100.493L116.061 90.0358C117.601 88.4957 117.601 85.9987 116.061 84.4586C114.521 82.9185 112.024 82.9185 110.484 84.4586L100.027 94.9158L89.5693 84.4586C88.0292 82.9185 85.5323 82.9185 83.9922 84.4586Z"/>
</mask>
<path fill-rule="evenodd" clip-rule="evenodd" d="M83.9922 84.4586C82.4521 85.9987 82.4521 88.4957 83.9922 90.0358L94.4494 100.493L83.9922 110.95C82.4521 112.49 82.4521 114.987 83.9922 116.527C85.5323 118.067 88.0292 118.067 89.5693 116.527L100.027 106.07L110.484 116.527C112.024 118.067 114.521 118.067 116.061 116.527C117.601 114.987 117.601 112.49 116.061 110.95L105.604 100.493L116.061 90.0358C117.601 88.4957 117.601 85.9987 116.061 84.4586C114.521 82.9185 112.024 82.9185 110.484 84.4586L100.027 94.9158L89.5693 84.4586C88.0292 82.9185 85.5323 82.9185 83.9922 84.4586Z" fill="white"/>
<path d="M83.9922 90.0358L84.6993 89.3286L83.9922 90.0358ZM94.4494 100.493L95.1565 101.2L95.8636 100.493L95.1565 99.7859L94.4494 100.493ZM100.027 106.07L100.734 105.363L100.027 104.656L99.3194 105.363L100.027 106.07ZM105.604 100.493L104.897 99.7859L104.19 100.493L104.897 101.2L105.604 100.493ZM100.027 94.9158L99.3194 95.6229L100.027 96.33L100.734 95.6229L100.027 94.9158ZM84.6993 89.3286C83.5497 88.1791 83.5497 86.3152 84.6993 85.1657L83.2851 83.7515C81.3544 85.6821 81.3544 88.8122 83.2851 90.7429L84.6993 89.3286ZM95.1565 99.7859L84.6993 89.3286L83.2851 90.7429L93.7423 101.2L95.1565 99.7859ZM84.6993 111.657L95.1565 101.2L93.7423 99.7859L83.2851 110.243L84.6993 111.657ZM84.6993 115.82C83.5497 114.671 83.5497 112.807 84.6993 111.657L83.2851 110.243C81.3544 112.174 81.3544 115.304 83.285 117.234L84.6993 115.82ZM88.8622 115.82C87.7127 116.97 85.8488 116.97 84.6993 115.82L83.285 117.234C85.2157 119.165 88.3458 119.165 90.2764 117.234L88.8622 115.82ZM99.3194 105.363L88.8622 115.82L90.2764 117.234L100.734 106.777L99.3194 105.363ZM111.191 115.82L100.734 105.363L99.3194 106.777L109.777 117.234L111.191 115.82ZM115.354 115.82C114.204 116.97 112.34 116.97 111.191 115.82L109.777 117.234C111.707 119.165 114.837 119.165 116.768 117.234L115.354 115.82ZM115.354 111.657C116.503 112.807 116.503 114.671 115.354 115.82L116.768 117.234C118.699 115.304 118.699 112.174 116.768 110.243L115.354 111.657ZM104.897 101.2L115.354 111.657L116.768 110.243L106.311 99.7859L104.897 101.2ZM115.354 89.3286L104.897 99.7859L106.311 101.2L116.768 90.7429L115.354 89.3286ZM115.354 85.1657C116.503 86.3152 116.503 88.1791 115.354 89.3286L116.768 90.7429C118.699 88.8122 118.699 85.6821 116.768 83.7515L115.354 85.1657ZM111.191 85.1657C112.34 84.0161 114.204 84.0161 115.354 85.1657L116.768 83.7515C114.837 81.8208 111.707 81.8209 109.777 83.7515L111.191 85.1657ZM100.734 95.6229L111.191 85.1657L109.777 83.7515L99.3194 94.2087L100.734 95.6229ZM88.8622 85.1657L99.3194 95.6229L100.734 94.2087L90.2764 83.7515L88.8622 85.1657ZM84.6993 85.1657C85.8488 84.0161 87.7127 84.0161 88.8622 85.1657L90.2764 83.7515C88.3458 81.8208 85.2157 81.8208 83.2851 83.7515L84.6993 85.1657Z" fill="black" fill-opacity="0.87" mask="url(#path-40-inside-1_142_1657)"/>
</svg>
