<svg width="200" height="200" viewBox="0 0 200 200" fill="none" xmlns="http://www.w3.org/2000/svg">
<circle cx="100" cy="100" r="100" fill="#00BDD3"/>
<circle cx="100" cy="100" r="99.5" stroke="black" stroke-opacity="0.87"/>
<path fill-rule="evenodd" clip-rule="evenodd" d="M125.059 149.682C124.57 150.171 123.744 150.028 123.414 149.421C118.936 141.173 110.199 135.573 100.154 135.573C89.9423 135.573 81.0819 141.361 76.6743 149.835C76.3517 150.455 75.5143 150.608 75.02 150.113L66.831 141.924C66.5044 141.598 66.443 141.089 66.6915 140.7C73.7375 129.665 86.0915 122.349 100.154 122.349C114.042 122.349 126.263 129.484 133.351 140.288C133.607 140.678 133.548 141.193 133.218 141.523L125.059 149.682ZM144.15 130.591C143.713 131.028 142.987 130.967 142.617 130.47C132.975 117.515 117.545 109.124 100.154 109.124C82.5977 109.124 67.0386 117.677 57.4165 130.843C57.0491 131.346 56.3182 131.411 55.8779 130.971L47.8664 122.96C47.5143 122.608 47.4743 122.049 47.7786 121.655C59.8705 105.989 78.8341 95.8991 100.154 95.8991C121.303 95.8991 140.133 105.828 152.237 121.278C152.546 121.672 152.507 122.234 152.153 122.588L144.15 130.591ZM162.984 111.757C162.563 112.178 161.868 112.139 161.49 111.678C146.937 93.9695 124.865 82.6743 100.154 82.6743C75.2775 82.6743 53.0743 94.1224 38.5258 112.038C38.1484 112.502 37.4507 112.544 37.0273 112.121L29.0549 104.148C28.6919 103.785 28.6624 103.206 28.991 102.811C45.9721 82.4249 71.548 69.4495 100.154 69.4495C128.59 69.4495 154.032 82.2707 171.013 102.447C171.345 102.842 171.317 103.424 170.953 103.788L162.984 111.757ZM181.753 92.9879C181.339 93.4017 180.66 93.3729 180.278 92.9299C160.877 70.4518 132.177 56.2248 100.154 56.2248C67.9648 56.2248 39.1327 70.6005 19.7283 93.2822C19.3467 93.7282 18.6653 93.7586 18.2503 93.3435L10.2926 85.3858C9.92348 85.0167 9.90012 84.4254 10.2423 84.0312C32.065 58.8949 64.2535 43 100.154 43C135.886 43 167.939 58.7448 189.756 83.675C190.101 84.069 190.079 84.6624 189.708 85.0326L181.753 92.9879ZM100.154 175.248C107.458 175.248 113.379 169.327 113.379 162.023C113.379 154.719 107.458 148.798 100.154 148.798C92.8506 148.798 86.9297 154.719 86.9297 162.023C86.9297 169.327 92.8506 175.248 100.154 175.248Z" fill="#F4E041"/>
<path d="M10.2926 85.3858L9.93904 85.7394L10.2926 85.3858ZM10.2423 84.0312L9.86476 83.7034L10.2423 84.0312ZM19.7283 93.2822L19.3483 92.9571L19.7283 93.2822ZM18.2503 93.3435L17.8967 93.6971L18.2503 93.3435ZM180.278 92.9299L180.656 92.6032L180.278 92.9299ZM181.753 92.9879L182.107 93.3414L181.753 92.9879ZM171.013 102.447L170.631 102.769L171.013 102.447ZM170.953 103.788L171.306 104.142L170.953 103.788ZM29.0549 104.148L28.7014 104.502L29.0549 104.148ZM28.991 102.811L29.3752 103.131L28.991 102.811ZM161.49 111.678L161.103 111.996L161.49 111.678ZM162.984 111.757L162.631 111.403L162.984 111.757ZM47.8664 122.96L47.5128 123.313L47.8664 122.96ZM47.7786 121.655L48.1744 121.961L47.7786 121.655ZM57.4165 130.843L57.8202 131.138L57.4165 130.843ZM55.8779 130.971L56.2314 130.618L55.8779 130.971ZM38.5258 112.038L38.914 112.353L38.5258 112.038ZM37.0273 112.121L37.3809 111.767L37.0273 112.121ZM66.831 141.924L67.1846 141.571L66.831 141.924ZM66.6915 140.7L66.2701 140.431L66.6915 140.7ZM142.617 130.47L143.018 130.172L142.617 130.47ZM144.15 130.591L143.797 130.237L144.15 130.591ZM76.6743 149.835L76.2307 149.604L76.6743 149.835ZM75.02 150.113L75.3735 149.76L75.02 150.113ZM133.351 140.288L132.933 140.563L133.351 140.288ZM152.237 121.278L152.63 120.969L152.237 121.278ZM189.756 83.675L190.132 83.3457L189.756 83.675ZM189.708 85.0326L189.355 84.679L189.708 85.0326ZM123.414 149.421L123.854 149.182L123.414 149.421ZM123.854 149.182C119.292 140.78 110.39 135.073 100.154 135.073V136.073C110.009 136.073 118.581 141.566 122.975 149.659L123.854 149.182ZM100.154 135.073C89.7485 135.073 80.721 140.971 76.2307 149.604L77.1179 150.066C81.4428 141.751 90.1361 136.073 100.154 136.073V135.073ZM75.3735 149.76L67.1846 141.571L66.4775 142.278L74.6664 150.467L75.3735 149.76ZM100.154 121.849C85.9138 121.849 73.4041 129.259 66.2701 140.431L67.113 140.969C74.071 130.072 86.2693 122.849 100.154 122.849V121.849ZM133.769 140.014C126.592 129.075 114.217 121.849 100.154 121.849V122.849C113.866 122.849 125.933 129.893 132.933 140.563L133.769 140.014ZM132.864 141.169L124.706 149.328L125.413 150.035L133.572 141.876L132.864 141.169ZM100.154 109.624C117.38 109.624 132.664 117.935 142.216 130.769L143.018 130.172C133.286 117.096 117.709 108.624 100.154 108.624V109.624ZM57.8202 131.138C67.3522 118.095 82.764 109.624 100.154 109.624V108.624C82.4314 108.624 66.725 117.259 57.0128 130.548L57.8202 131.138ZM56.2314 130.618L48.2199 122.606L47.5128 123.313L55.5243 131.325L56.2314 130.618ZM48.1744 121.961C60.1757 106.412 78.9956 96.3991 100.154 96.3991V95.3991C78.6726 95.3991 59.5653 105.567 47.3828 121.35L48.1744 121.961ZM100.154 96.3991C121.143 96.3991 139.83 106.252 151.843 121.586L152.63 120.969C140.436 105.403 121.463 95.3991 100.154 95.3991V96.3991ZM151.8 122.234L143.797 130.237L144.504 130.944L152.507 122.941L151.8 122.234ZM161.876 111.361C147.232 93.5414 125.021 82.1743 100.154 82.1743V83.1743C124.709 83.1743 146.642 94.3975 161.103 111.996L161.876 111.361ZM100.154 82.1743C75.1205 82.1743 52.777 93.6953 38.1377 111.722L38.914 112.353C53.3716 94.5495 75.4344 83.1743 100.154 83.1743V82.1743ZM37.3809 111.767L29.4085 103.795L28.7014 104.502L36.6738 112.474L37.3809 111.767ZM100.154 68.9495C71.3933 68.9495 45.6788 81.9957 28.6068 102.491L29.3752 103.131C46.2653 82.854 71.7027 69.9495 100.154 69.9495V68.9495ZM171.396 102.126C154.323 81.8406 128.744 68.9495 100.154 68.9495V69.9495C128.437 69.9495 153.74 82.7007 170.631 102.769L171.396 102.126ZM170.599 103.435L162.631 111.403L163.338 112.11L171.306 104.142L170.599 103.435ZM180.656 92.6032C161.165 70.0198 132.329 55.7248 100.154 55.7248V56.7248C132.026 56.7248 160.589 70.8839 179.899 93.2566L180.656 92.6032ZM100.154 55.7248C67.8125 55.7248 38.8437 70.1692 19.3483 92.9571L20.1082 93.6072C39.4217 71.0319 68.117 56.7248 100.154 56.7248V55.7248ZM18.6038 92.99L10.6461 85.0323L9.93904 85.7394L17.8967 93.6971L18.6038 92.99ZM100.154 42.5C64.1026 42.5 31.7783 58.4624 9.86476 83.7034L10.6199 84.359C32.3516 59.3274 64.4044 43.5 100.154 43.5V42.5ZM190.132 83.3457C168.225 58.3117 136.036 42.5 100.154 42.5V43.5C135.735 43.5 167.654 59.178 189.38 84.0043L190.132 83.3457ZM189.355 84.679L181.4 92.6343L182.107 93.3414L190.062 85.3861L189.355 84.679ZM112.879 162.023C112.879 169.051 107.182 174.748 100.154 174.748V175.748C107.734 175.748 113.879 169.603 113.879 162.023H112.879ZM100.154 149.298C107.182 149.298 112.879 154.995 112.879 162.023H113.879C113.879 154.443 107.734 148.298 100.154 148.298V149.298ZM87.4297 162.023C87.4297 154.995 93.1268 149.298 100.154 149.298V148.298C92.5745 148.298 86.4297 154.443 86.4297 162.023H87.4297ZM100.154 174.748C93.1268 174.748 87.4297 169.051 87.4297 162.023H86.4297C86.4297 169.603 92.5745 175.748 100.154 175.748V174.748ZM10.6461 85.0323C10.461 84.8471 10.4513 84.5532 10.6199 84.359L9.86476 83.7034C9.34893 84.2976 9.386 85.1864 9.93904 85.7394L10.6461 85.0323ZM19.3483 92.9571C19.1539 93.1844 18.8103 93.1964 18.6038 92.99L17.8967 93.6971C18.5203 94.3207 19.5395 94.272 20.1082 93.6072L19.3483 92.9571ZM179.899 93.2566C180.469 93.9169 181.485 93.9632 182.107 93.3414L181.4 92.6343C181.194 92.8402 180.851 92.8289 180.656 92.6032L179.899 93.2566ZM170.631 102.769C170.794 102.963 170.782 103.252 170.599 103.435L171.306 104.142C171.852 103.596 171.897 102.721 171.396 102.126L170.631 102.769ZM29.4085 103.795C29.2262 103.612 29.2139 103.325 29.3752 103.131L28.6068 102.491C28.1108 103.087 28.1576 103.958 28.7014 104.502L29.4085 103.795ZM161.103 111.996C161.666 112.681 162.704 112.744 163.338 112.11L162.631 111.403C162.421 111.613 162.07 111.597 161.876 111.361L161.103 111.996ZM48.2199 122.606C48.0428 122.429 48.0262 122.153 48.1744 121.961L47.3828 121.35C46.9225 121.946 46.9857 122.786 47.5128 123.313L48.2199 122.606ZM57.0128 130.548C56.8217 130.81 56.4492 130.835 56.2314 130.618L55.5243 131.325C56.1871 131.987 57.2765 131.882 57.8202 131.138L57.0128 130.548ZM38.1377 111.722C37.9441 111.961 37.5911 111.977 37.3809 111.767L36.6738 112.474C37.3103 113.111 38.3527 113.044 38.914 112.353L38.1377 111.722ZM67.1846 141.571C67.0197 141.406 66.9938 141.155 67.113 140.969L66.2701 140.431C65.8921 141.023 65.9891 141.789 66.4775 142.278L67.1846 141.571ZM142.216 130.769C142.763 131.504 143.845 131.603 144.504 130.944L143.797 130.237C143.58 130.454 143.21 130.43 143.018 130.172L142.216 130.769ZM76.2307 149.604C76.0545 149.943 75.6144 150.001 75.3735 149.76L74.6664 150.467C75.4142 151.215 76.6489 150.967 77.1179 150.066L76.2307 149.604ZM132.933 140.563C133.056 140.749 133.031 141.003 132.864 141.169L133.572 141.876C134.065 141.383 134.158 140.607 133.769 140.014L132.933 140.563ZM151.843 121.586C151.994 121.778 151.978 122.056 151.8 122.234L152.507 122.941C153.037 122.411 153.098 121.566 152.63 120.969L151.843 121.586ZM189.38 84.0043C189.55 84.1984 189.541 84.4933 189.355 84.679L190.062 85.3861C190.617 84.8315 190.652 83.9396 190.132 83.3457L189.38 84.0043ZM122.975 149.659C123.455 150.543 124.674 150.774 125.413 150.035L124.706 149.328C124.467 149.567 124.034 149.513 123.854 149.182L122.975 149.659Z" fill="black" fill-opacity="0.87"/>
<circle cx="159.5" cy="40.5" r="35.5" fill="#FF4D4D" stroke="black" stroke-opacity="0.87"/>
<mask id="path-6-inside-1_82_1134" fill="white">
<path fill-rule="evenodd" clip-rule="evenodd" d="M143.263 24.7365C141.701 26.2986 141.701 28.8313 143.263 30.3934L153.87 41L143.263 51.6066C141.701 53.1687 141.701 55.7014 143.263 57.2635C144.826 58.8256 147.358 58.8256 148.92 57.2635L159.527 46.6569L170.134 57.2635C171.696 58.8256 174.228 58.8256 175.79 57.2635C177.352 55.7014 177.352 53.1687 175.79 51.6066L165.184 41L175.79 30.3934C177.352 28.8313 177.352 26.2986 175.79 24.7365C174.228 23.1744 171.696 23.1744 170.134 24.7365L159.527 35.3431L148.92 24.7365C147.358 23.1744 144.826 23.1744 143.263 24.7365Z"/>
</mask>
<path fill-rule="evenodd" clip-rule="evenodd" d="M143.263 24.7365C141.701 26.2986 141.701 28.8313 143.263 30.3934L153.87 41L143.263 51.6066C141.701 53.1687 141.701 55.7014 143.263 57.2635C144.826 58.8256 147.358 58.8256 148.92 57.2635L159.527 46.6569L170.134 57.2635C171.696 58.8256 174.228 58.8256 175.79 57.2635C177.352 55.7014 177.352 53.1687 175.79 51.6066L165.184 41L175.79 30.3934C177.352 28.8313 177.352 26.2986 175.79 24.7365C174.228 23.1744 171.696 23.1744 170.134 24.7365L159.527 35.3431L148.92 24.7365C147.358 23.1744 144.826 23.1744 143.263 24.7365Z" fill="white"/>
<path d="M153.87 41L154.577 41.7071L155.284 41L154.577 40.2929L153.87 41ZM159.527 46.6569L160.234 45.9497L159.527 45.2426L158.82 45.9497L159.527 46.6569ZM165.184 41L164.477 40.2929L163.77 41L164.477 41.7071L165.184 41ZM159.527 35.3431L158.82 36.0503L159.527 36.7574L160.234 36.0503L159.527 35.3431ZM143.971 29.6863C142.799 28.5147 142.799 26.6152 143.971 25.4437L142.556 24.0294C140.604 25.9821 140.604 29.1479 142.556 31.1005L143.971 29.6863ZM154.577 40.2929L143.971 29.6863L142.556 31.1005L153.163 41.7071L154.577 40.2929ZM143.971 52.3137L154.577 41.7071L153.163 40.2929L142.556 50.8995L143.971 52.3137ZM143.971 56.5563C142.799 55.3848 142.799 53.4853 143.971 52.3137L142.556 50.8995C140.604 52.8521 140.604 56.0179 142.556 57.9706L143.971 56.5563ZM148.213 56.5563C147.042 57.7279 145.142 57.7279 143.971 56.5563L142.556 57.9706C144.509 59.9232 147.675 59.9232 149.627 57.9706L148.213 56.5563ZM158.82 45.9497L148.213 56.5563L149.627 57.9706L160.234 47.364L158.82 45.9497ZM170.841 56.5563L160.234 45.9497L158.82 47.364L169.426 57.9706L170.841 56.5563ZM175.083 56.5563C173.912 57.7279 172.012 57.7279 170.841 56.5563L169.426 57.9706C171.379 59.9232 174.545 59.9232 176.497 57.9706L175.083 56.5563ZM175.083 52.3137C176.255 53.4853 176.255 55.3848 175.083 56.5563L176.497 57.9706C178.45 56.0179 178.45 52.8521 176.497 50.8995L175.083 52.3137ZM164.477 41.7071L175.083 52.3137L176.497 50.8995L165.891 40.2929L164.477 41.7071ZM175.083 29.6863L164.477 40.2929L165.891 41.7071L176.497 31.1005L175.083 29.6863ZM175.083 25.4437C176.255 26.6152 176.255 28.5147 175.083 29.6863L176.497 31.1005C178.45 29.1479 178.45 25.9821 176.497 24.0294L175.083 25.4437ZM170.841 25.4437C172.012 24.2721 173.912 24.2721 175.083 25.4437L176.497 24.0294C174.545 22.0768 171.379 22.0768 169.426 24.0294L170.841 25.4437ZM160.234 36.0503L170.841 25.4437L169.426 24.0294L158.82 34.636L160.234 36.0503ZM148.213 25.4437L158.82 36.0503L160.234 34.636L149.627 24.0294L148.213 25.4437ZM143.971 25.4437C145.142 24.2721 147.042 24.2721 148.213 25.4437L149.627 24.0294C147.675 22.0768 144.509 22.0768 142.556 24.0294L143.971 25.4437Z" fill="black" fill-opacity="0.87" mask="url(#path-6-inside-1_82_1134)"/>
</svg>
