<svg width="23" height="19" viewBox="0 0 23 19" fill="none" xmlns="http://www.w3.org/2000/svg">
<path d="M13 18.5879C12.3711 18.5879 11.7581 18.5218 11.1611 18.3896C10.5641 18.262 9.98991 18.0775 9.43848 17.8359C9.639 17.6126 9.81217 17.3802 9.95801 17.1387C10.1084 16.9017 10.2132 16.6898 10.2725 16.5029C10.6963 16.6761 11.1406 16.8083 11.6055 16.8994C12.0749 16.9906 12.5374 17.0361 12.9932 17.0361C13.7269 17.0361 14.431 16.9336 15.1055 16.7285C15.7845 16.528 16.4089 16.2454 16.9785 15.8809C17.5527 15.5163 18.054 15.0947 18.4824 14.6162C18.2637 14.3473 17.9788 14.0898 17.6279 13.8438C17.277 13.5931 16.8669 13.3698 16.3975 13.1738C15.9281 12.9733 15.4062 12.8138 14.832 12.6953C14.2624 12.5768 13.6494 12.5176 12.9932 12.5176C12.5648 12.5176 12.1569 12.5449 11.7695 12.5996C11.3822 12.6543 11.013 12.7249 10.6621 12.8115C10.5163 12.2054 10.2747 11.6426 9.9375 11.123C9.60026 10.6035 9.18783 10.1501 8.7002 9.7627C8.21712 9.37533 7.67708 9.07227 7.08008 8.85352C6.48763 8.63477 5.85872 8.52539 5.19336 8.52539C4.99284 8.52539 4.79688 8.53678 4.60547 8.55957C4.41406 8.5778 4.22493 8.60742 4.03809 8.64844C4.12923 7.74609 4.35026 6.88932 4.70117 6.07812C5.05208 5.26237 5.50553 4.51725 6.06152 3.84277C6.61751 3.16829 7.25781 2.58724 7.98242 2.09961C8.70703 1.60742 9.49089 1.22689 10.334 0.958008C11.1816 0.689128 12.068 0.554688 12.9932 0.554688C13.9821 0.554688 14.9255 0.707357 15.8232 1.0127C16.721 1.31803 17.5459 1.7487 18.2979 2.30469C19.0544 2.86068 19.7083 3.51465 20.2598 4.2666C20.8158 5.01855 21.2464 5.84342 21.5518 6.74121C21.8617 7.639 22.0166 8.58236 22.0166 9.57129C22.0166 10.5602 21.8639 11.5036 21.5586 12.4014C21.2533 13.2992 20.8226 14.124 20.2666 14.876C19.7106 15.6279 19.0566 16.2819 18.3047 16.8379C17.5527 17.3939 16.7279 17.8245 15.8301 18.1299C14.9323 18.4352 13.9889 18.5879 13 18.5879ZM12.9932 11C13.5583 11.0046 14.0687 10.8587 14.5244 10.5625C14.9847 10.2663 15.347 9.86751 15.6113 9.36621C15.8802 8.86035 16.0146 8.29297 16.0146 7.66406C16.0146 7.07161 15.8802 6.5293 15.6113 6.03711C15.3424 5.54036 14.9779 5.14388 14.5176 4.84766C14.0618 4.55143 13.5537 4.40332 12.9932 4.40332C12.4281 4.40332 11.9154 4.55143 11.4551 4.84766C10.9948 5.14388 10.6302 5.54036 10.3613 6.03711C10.0924 6.5293 9.96029 7.07161 9.96484 7.66406C9.9694 8.29297 10.1038 8.85807 10.3682 9.35938C10.637 9.86068 10.9993 10.2594 11.4551 10.5557C11.9108 10.8473 12.4235 10.9954 12.9932 11ZM5.2002 18.6426C4.58496 18.6426 4.00618 18.5264 3.46387 18.2939C2.92611 18.0615 2.44987 17.738 2.03516 17.3232C1.62044 16.9131 1.29688 16.4368 1.06445 15.8945C0.832031 15.3522 0.71582 14.7757 0.71582 14.165C0.71582 13.5498 0.832031 12.9733 1.06445 12.4355C1.29688 11.8932 1.62044 11.4147 2.03516 11C2.44987 10.5853 2.92611 10.2617 3.46387 10.0293C4.00618 9.79688 4.58496 9.68066 5.2002 9.68066C5.81543 9.68066 6.39193 9.79688 6.92969 10.0293C7.47201 10.2617 7.94824 10.5853 8.3584 11C8.77311 11.4102 9.09668 11.8864 9.3291 12.4287C9.56152 12.971 9.67773 13.5498 9.67773 14.165C9.67773 14.7757 9.55924 15.3499 9.32227 15.8877C9.08984 16.43 8.76628 16.9085 8.35156 17.3232C7.93685 17.738 7.45833 18.0615 6.91602 18.2939C6.37826 18.5264 5.80632 18.6426 5.2002 18.6426ZM5.2002 17.0156C5.36882 17.0156 5.50326 16.9632 5.60352 16.8584C5.70378 16.7581 5.75391 16.626 5.75391 16.4619V14.7188H7.49023C7.65885 14.7188 7.79329 14.6686 7.89355 14.5684C7.99382 14.4681 8.04395 14.3337 8.04395 14.165C8.04395 13.9919 7.99382 13.8551 7.89355 13.7549C7.79329 13.6546 7.65885 13.6045 7.49023 13.6045H5.75391V11.875C5.75391 11.7109 5.70378 11.5788 5.60352 11.4785C5.50326 11.3737 5.36882 11.3213 5.2002 11.3213C5.03158 11.3213 4.89714 11.3737 4.79688 11.4785C4.69661 11.5788 4.64648 11.7109 4.64648 11.875V13.6045H2.91016C2.74154 13.6045 2.60482 13.6546 2.5 13.7549C2.39974 13.8551 2.34961 13.9919 2.34961 14.165C2.34961 14.3337 2.40202 14.4681 2.50684 14.5684C2.61165 14.6686 2.74609 14.7188 2.91016 14.7188H4.64648V16.4619C4.64648 16.626 4.69661 16.7581 4.79688 16.8584C4.89714 16.9632 5.03158 17.0156 5.2002 17.0156Z" fill="#00BDD3"/>
</svg>
