<svg width="160" height="108" viewBox="0 0 160 108" fill="none" xmlns="http://www.w3.org/2000/svg">
<path d="M104.337 57.3586C104.683 59.8474 103.741 62.2247 102.035 63.7144C101.718 63.9943 101.375 64.2398 101.009 64.4508C100.678 64.6394 100.332 64.8018 99.9661 64.9302C99.1362 65.2243 98.2718 65.3327 97.4218 65.2786C97.3986 65.2786 97.3755 65.2786 97.3527 65.2728C95.6412 65.1502 93.9929 64.3738 92.8261 63.1324C90.9331 61.1202 90.9878 58.62 91.0106 58.0979C91.0106 57.8465 91.0224 57.6013 91.051 57.3586H70.4782C70.5072 57.6013 70.5186 57.8465 70.5186 58.0979C70.5417 58.62 70.5964 61.1202 68.7034 63.1324C67.5364 64.3738 65.8883 65.1502 64.1768 65.2728C64.1537 65.2786 64.1306 65.2786 64.1074 65.2786C63.2577 65.3327 62.3933 65.2243 61.5634 64.9302C61.1974 64.8018 60.8517 64.6394 60.5203 64.4508C60.1543 64.2398 59.8115 63.9943 59.4945 63.7174C59.4916 63.7174 59.4916 63.7144 59.4916 63.7144C57.7888 62.2217 56.8466 59.8474 57.1923 57.3586H49.7815C49.8305 57.1759 49.8823 56.9905 49.9313 56.8077C50.8533 53.4143 51.7754 50.0181 52.6974 46.6244L53.3025 46.5959L60.382 46.2821C60.7018 46.2679 60.9467 46.0023 60.9323 45.6885C60.9179 45.3714 60.6557 45.1262 60.3301 45.1433L53.6165 45.44L53.0144 45.4685C53.3486 44.2301 53.6857 42.9942 54.0199 41.7584L54.6049 41.8069L60.2898 42.2777H60.3387C60.6355 42.2777 60.8891 42.0525 60.9122 41.7555C60.9381 41.4417 60.7047 41.1647 60.3878 41.1389L54.9103 40.6853L54.3254 40.6368C54.6654 39.3838 55.0054 38.1308 55.3454 36.8808L55.8871 37.0891L61.281 39.1525C61.3472 39.1784 61.4193 39.1926 61.4884 39.1926C61.7189 39.1926 61.9378 39.0528 62.0245 38.8273C62.1395 38.5333 61.9926 38.2023 61.6957 38.0881L56.1896 35.9788L55.6479 35.7734C58.6359 24.7739 61.6267 13.7744 64.6147 2.77777C66.7729 9.35349 68.9279 15.9292 71.0832 22.5021C72.6048 21.7372 76.1517 20.1703 80.7444 20.2417H80.7848C85.3776 20.1703 88.9247 21.7372 90.446 22.5021C92.6013 15.9292 94.7566 9.35349 96.9148 2.77777C99.9026 13.7744 102.894 24.7739 105.881 35.7734L105.34 35.9788L99.8335 38.0881C99.5367 38.2023 99.3868 38.5333 99.5021 38.8273C99.5914 39.0528 99.8104 39.1926 100.041 39.1926C100.11 39.1926 100.179 39.1784 100.248 39.1525L105.642 37.0891L106.184 36.8808C106.524 38.1308 106.864 39.3838 107.204 40.6368L106.619 40.6853L101.142 41.1389C100.825 41.1647 100.588 41.4417 100.614 41.7555C100.64 42.0525 100.894 42.2777 101.188 42.2777H101.237L106.925 41.8069L107.509 41.7584C107.844 42.9942 108.181 44.2301 108.515 45.4685L107.913 45.44L101.196 45.1433C100.871 45.1317 100.609 45.3714 100.594 45.6885C100.58 46.0023 100.828 46.2679 101.145 46.2821L108.227 46.5959L108.832 46.6244C109.754 50.0181 110.676 53.4143 111.598 56.8077C111.647 56.9905 111.699 57.1759 111.748 57.3586H104.337Z" fill="white"/>
<path d="M112.497 57.9293L112.347 57.3813L112.192 56.8077L109.431 46.6499L108.832 46.6244L108.227 46.5959L110.996 56.7876H103.674L103.764 57.4356C104.037 59.3961 103.449 61.2971 102.271 62.6669C102.046 62.9295 101.799 63.1722 101.533 63.389C101.453 63.4575 101.369 63.5232 101.286 63.5831C101.113 63.7144 100.934 63.8315 100.747 63.937C100.439 64.1168 100.113 64.2709 99.77 64.3909C99.1995 64.5934 98.6059 64.7018 98.0096 64.7189C97.8135 64.7247 97.6176 64.7189 97.4218 64.7076C97.2315 64.6963 97.0413 64.6733 96.8513 64.6419C95.5027 64.4278 94.2148 63.7714 93.2468 62.7413C91.6389 61.0315 91.5496 58.9425 91.587 58.0975C91.587 57.8494 91.5985 57.6294 91.6216 57.424L91.6965 56.7876H69.8298L69.9048 57.424C69.9279 57.6294 69.9422 57.8494 69.9422 58.1205C69.9768 58.9425 69.8875 61.0315 68.2796 62.7413C67.3116 63.7714 66.0236 64.4278 64.678 64.6419C64.488 64.6733 64.2977 64.6963 64.1075 64.7076C63.9117 64.7189 63.7158 64.7247 63.5197 64.7189C62.9205 64.7018 62.3269 64.5934 61.7564 64.3909C61.4164 64.2709 61.0908 64.1198 60.7854 63.9399H60.7825C60.5952 63.8341 60.4137 63.7144 60.2408 63.5831C60.1572 63.5232 60.0736 63.4575 59.993 63.389C59.7279 63.1722 59.4801 62.9295 59.2553 62.6669C58.0769 61.2971 57.4891 59.3961 57.7628 57.4356L57.8521 56.7876H50.5335L53.3025 46.5959L52.6974 46.6244L52.0952 46.6499L49.3348 56.8077L49.1793 57.3813L49.0294 57.9293H56.5555C56.3654 61.2828 58.3131 64.388 61.3674 65.4669C64.027 66.4086 67.1444 65.6267 69.1241 63.5203C71.0285 61.4938 71.1351 59.0338 71.095 58.0975C71.095 58.0406 71.092 57.9833 71.092 57.9293H90.4346V58.072C90.3913 59.0338 90.4978 61.4938 92.4026 63.5203C93.8258 65.033 95.8312 65.8606 97.8337 65.8606C98.6205 65.8606 99.407 65.7322 100.159 65.4669C103.213 64.388 105.161 61.2828 104.971 57.9293H112.497ZM54.0199 41.7581L53.435 41.7095L52.4093 45.494L53.0143 45.4684L53.6166 45.44L54.6048 41.8066L54.0199 41.7581ZM96.9666 0.77121L96.3642 2.60065C94.5663 8.08612 92.7655 13.5716 90.9677 19.0542L90.1003 21.6999C87.9076 20.6782 84.6572 19.6022 80.7848 19.6707H80.7532C76.8691 19.6079 73.6188 20.6782 71.4263 21.6999L70.559 19.0542C68.7608 13.5716 66.963 8.08612 65.1621 2.60065L64.56 0.77121L55.1062 35.565L55.6479 35.7733L56.1896 35.9788L64.6666 4.78115C66.2657 9.6587 67.8648 14.5334 69.461 19.4081L70.7434 23.3125L71.3426 23.0099C73.4057 21.9711 76.7222 20.7381 80.7444 20.8123H80.7933C84.8273 20.7438 88.1207 21.9711 90.1838 23.0099L90.7859 23.3125L92.0653 19.4081C93.6615 14.5334 95.2607 9.6587 96.8627 4.78115L105.34 35.9788L105.881 35.7733L106.42 35.565L96.9666 0.77121ZM54.8036 36.6724L53.7404 40.5879L54.3253 40.6364L54.9103 40.685L55.8871 37.0891L55.3454 36.8807L54.8036 36.6724ZM106.723 36.675L106.184 36.8807L105.642 37.0891L106.619 40.685L107.204 40.6364L107.786 40.5908L106.723 36.675ZM108.091 41.7095L107.509 41.7581L106.924 41.8066L107.913 45.44L108.515 45.4684L109.117 45.494L108.091 41.7095Z" fill="black" fill-opacity="0.87"/>
<path d="M85.331 38.1962C84.654 38.1962 84.1066 37.6537 84.1066 36.983V29.6311C84.1066 28.9604 84.654 28.4181 85.331 28.4181C86.0081 28.4181 86.5554 28.9604 86.5554 29.6311V36.983C86.5554 37.6511 86.0081 38.1962 85.331 38.1962Z" fill="black" fill-opacity="0.87"/>
<path d="M76.9165 36.9121C76.245 36.9833 75.64 36.501 75.568 35.8332L74.9714 30.2849C74.8994 29.6199 75.3865 29.0206 76.0606 28.9492C76.7321 28.8779 77.3372 29.3602 77.4092 30.0281L78.0055 35.5763C78.0778 36.2441 77.5907 36.8406 76.9165 36.9121Z" fill="black" fill-opacity="0.87"/>
<path d="M62.0194 38.8273C61.9331 39.0528 61.7141 39.1925 61.4836 39.1925C61.4144 39.1925 61.3424 39.1783 61.2761 39.1527L55.8822 37.089L55.3405 36.8807L54.7988 36.6723L46.9615 33.6727C46.6619 33.5585 46.5149 33.2275 46.6302 32.9335C46.7455 32.6397 47.0797 32.4941 47.3765 32.6083L55.1014 35.565L55.6431 35.7733L56.1848 35.9787L61.691 38.088C61.9878 38.2022 62.1348 38.5332 62.0194 38.8273Z" fill="black" fill-opacity="0.87"/>
<path d="M60.9068 41.7553C60.8837 42.0523 60.6301 42.2778 60.3333 42.2778H60.2844L54.5995 41.8067L54.0145 41.7582L53.4296 41.7097L44.9902 41.0105C44.6732 40.9847 44.4369 40.708 44.4658 40.3939C44.4917 40.0801 44.7654 39.8459 45.0881 39.8747L53.7351 40.588L54.32 40.6366L54.9049 40.6851L60.3823 41.139C60.6993 41.1646 60.9327 41.4415 60.9068 41.7553Z" fill="black" fill-opacity="0.87"/>
<path d="M60.9276 45.6886C60.942 46.0027 60.6971 46.268 60.3773 46.2823L53.2978 46.5961L52.6927 46.6248L52.0905 46.6504L45.0456 46.9645H45.0197C44.7142 46.9645 44.4578 46.7245 44.4463 46.4194C44.4319 46.1024 44.6768 45.8371 44.9937 45.8229L52.4046 45.4945L53.0097 45.4689L53.6119 45.4405L60.3254 45.1435C60.651 45.1263 60.9132 45.3719 60.9276 45.6886Z" fill="black" fill-opacity="0.87"/>
<path d="M114.558 33.6727L106.718 36.6753L106.179 36.8807L105.638 37.089L100.244 39.1527C100.175 39.1783 100.105 39.1925 100.036 39.1925C99.8057 39.1925 99.5865 39.0528 99.4972 38.8273C99.3821 38.5332 99.5317 38.2022 99.8285 38.088L105.335 35.9787L105.877 35.7733L106.415 35.565L114.143 32.6083C114.437 32.4941 114.774 32.6397 114.89 32.9335C115.002 33.2275 114.855 33.5585 114.558 33.6727Z" fill="black" fill-opacity="0.87"/>
<path d="M117.05 40.3943C117.076 40.7081 116.839 40.9851 116.522 41.0106L108.083 41.7101L107.501 41.7586L106.916 41.8071L101.228 42.2778H101.179C100.885 42.2778 100.632 42.0527 100.606 41.7557C100.58 41.4419 100.816 41.1649 101.133 41.1391L106.611 40.6855L107.195 40.637L107.777 40.5913L116.427 39.8748C116.744 39.8434 117.024 40.0802 117.05 40.3943Z" fill="black" fill-opacity="0.87"/>
<path d="M117.071 46.4193C117.056 46.7247 116.803 46.9644 116.494 46.9644H116.468L109.423 46.6506L108.824 46.6247L108.219 46.5962L101.137 46.2824C100.82 46.2679 100.572 46.0026 100.586 45.6888C100.601 45.3718 100.863 45.132 101.189 45.1437L107.905 45.4403L108.507 45.4688L109.109 45.4947L116.52 45.8227C116.84 45.837 117.085 46.1026 117.071 46.4193Z" fill="black" fill-opacity="0.87"/>
<path d="M97.1826 59.8016C97.4025 60.4295 97.5933 61.1946 97.6542 62.0707C97.7265 63.1011 97.5962 63.9973 97.4169 64.7077L97.1826 59.8016Z" fill="white"/>
<path d="M97.4193 65.2788C97.3734 65.2788 97.3271 65.273 97.2812 65.2617C96.9729 65.1873 96.7827 64.8764 96.8605 64.571C97.0622 63.7574 97.1371 62.9298 97.0795 62.1107C97.0303 61.3999 96.8807 60.6865 96.6386 59.99C96.5347 59.6933 96.6934 59.3679 96.9958 59.2653C97.2984 59.1625 97.6239 59.3194 97.7276 59.6192C98.0042 60.4096 98.1713 61.2229 98.229 62.0336C98.2954 62.9725 98.2088 63.9172 97.9784 64.8476C97.912 65.1045 97.6757 65.2788 97.4193 65.2788Z" fill="black" fill-opacity="0.87"/>
<path d="M100.94 59.5761C101.293 60.1383 101.6 60.8232 101.695 61.6081C101.811 62.5301 101.603 63.3321 101.316 63.9714L100.94 59.5761Z" fill="white"/>
<path d="M101.315 64.5393C101.237 64.5393 101.159 64.5222 101.082 64.4908C100.791 64.3624 100.658 64.0256 100.788 63.7373C101.093 63.0524 101.203 62.3588 101.119 61.6739C101.044 61.0745 100.82 60.4695 100.448 59.8729C100.281 59.6047 100.364 59.2534 100.635 59.0881C100.906 58.9225 101.26 59.0053 101.428 59.2735C101.889 60.0098 102.168 60.772 102.263 61.5368C102.372 62.4274 102.231 63.3235 101.842 64.1996C101.747 64.4138 101.537 64.5393 101.315 64.5393Z" fill="black" fill-opacity="0.87"/>
<path d="M64.3427 59.8016C64.1229 60.4295 63.9318 61.1946 63.8709 62.0707C63.7986 63.1011 63.9288 63.9973 64.1082 64.7077L64.3427 59.8016Z" fill="white"/>
<path d="M64.1025 65.2787C63.8435 65.2787 63.6099 65.1044 63.5437 64.8449C63.313 63.9173 63.2267 62.9698 63.2928 62.0306C63.3476 61.2173 63.5177 60.4066 63.7943 59.6162C63.8982 59.3192 64.2266 59.1594 64.5261 59.2623C64.8258 59.3648 64.9871 59.6903 64.8835 59.9873C64.6414 60.6835 64.4915 61.3942 64.4426 62.1076C64.385 62.9268 64.4599 63.7546 64.6616 64.5679C64.7365 64.8733 64.5492 65.1843 64.241 65.2587C64.1947 65.2729 64.1488 65.2787 64.1025 65.2787Z" fill="black" fill-opacity="0.87"/>
<path d="M60.5853 59.5761C60.2323 60.1383 59.9256 60.8232 59.8301 61.6081C59.7143 62.5301 59.9227 63.3321 60.2091 63.9714L60.5853 59.5761Z" fill="white"/>
<path d="M60.2067 64.5393C59.9848 64.5393 59.7745 64.4109 59.6794 64.1996C59.2904 63.3262 59.1464 62.43 59.2587 61.5368C59.3538 60.772 59.6333 60.0127 60.0943 59.2735C60.2614 59.0053 60.6158 58.9225 60.8867 59.0881C61.1575 59.2534 61.2411 59.6047 61.074 59.8729C60.7023 60.4666 60.4775 61.0745 60.4026 61.6739C60.3191 62.3588 60.4286 63.0524 60.734 63.7373C60.8636 64.0256 60.7311 64.3624 60.4401 64.4908C60.3623 64.5251 60.2845 64.5393 60.2067 64.5393Z" fill="black" fill-opacity="0.87"/>
<path d="M53.2079 57.8463H32.9037C32.5666 57.8463 32.2908 57.6275 32.2908 57.3604C32.2908 57.0931 32.5666 56.8746 32.9037 56.8746H53.2079C53.5451 56.8746 53.8209 57.0931 53.8209 57.3604C53.8209 57.6275 53.5451 57.8463 53.2079 57.8463Z" fill="black" fill-opacity="0.87"/>
<path d="M127.133 57.949H108.044C107.727 57.949 107.468 57.6925 107.468 57.3783C107.468 57.0645 107.727 56.8076 108.044 56.8076H127.133C127.45 56.8076 127.709 57.0645 127.709 57.3783C127.709 57.6925 127.453 57.949 127.133 57.949Z" fill="black" fill-opacity="0.87"/>
<path d="M86.627 47.4467C86.2119 48.514 85.2524 49.6699 84.0338 49.8443C82.9071 50.0012 81.8697 49.4046 81.1236 48.4771C81.0516 48.6738 80.9623 48.8766 80.8469 49.0792C80.6596 49.4104 79.6541 51.0484 77.9771 51.0484H77.9309C76.3347 51.02 74.949 49.5787 74.7069 47.6923C74.6694 47.3781 74.8913 47.0928 75.208 47.0556C75.5195 47.0158 75.8134 47.2384 75.8508 47.5496C76.0352 49.0051 77.0639 49.8925 77.9511 49.907H77.9742C79.0318 49.907 79.7607 48.6654 79.8415 48.5227C80.239 47.8149 80.2302 47.0899 80.1582 46.6133C80.1324 46.525 80.1093 46.4364 80.0862 46.348C78.9771 46.4765 78.0205 46.0912 77.8445 45.3888C77.6458 44.5898 78.5362 43.6823 79.8356 43.3626C81.1379 43.043 82.3539 43.4309 82.5526 44.2303C82.7198 44.8896 82.1463 45.6201 81.2128 46.0368C81.2415 46.1423 81.2676 46.2681 81.2907 46.405C81.7573 47.9404 82.9504 48.8395 83.8722 48.7139C84.587 48.6111 85.2582 47.7919 85.5492 47.0385C85.7971 46.3992 85.7626 45.7971 85.6906 45.406C85.6358 45.0951 85.8431 44.7981 86.1542 44.7411C86.4712 44.6868 86.7681 44.8922 86.8257 45.2006C86.9238 45.7372 86.9697 46.559 86.627 47.4467Z" fill="black" fill-opacity="0.87"/>
<path d="M9.30828 107.081C8.32326 107.081 7.83077 106.809 7.83077 106.267V83.9164H0.738752C0.4925 83.9164 0.307813 83.8301 0.184688 83.6574C0.0615627 83.4847 0 83.201 0 82.8063V82.2143C0 81.8196 0.0615627 81.5359 0.184688 81.3632C0.307813 81.1905 0.4925 81.1042 0.738752 81.1042H18.0625C18.3333 81.1042 18.518 81.1905 18.6166 81.3632C18.7397 81.5359 18.8012 81.8196 18.8012 82.2143V82.8063C18.8012 83.201 18.7397 83.4847 18.6166 83.6574C18.518 83.8301 18.3333 83.9164 18.0625 83.9164H11.0813V106.267C11.0813 106.809 10.5888 107.081 9.60378 107.081H9.30828ZM24.2616 107.007C23.8676 107.007 23.5845 106.92 23.4121 106.748C23.2397 106.575 23.1535 106.291 23.1535 105.897V82.2143C23.1535 81.8196 23.2397 81.5359 23.4121 81.3632C23.5845 81.1905 23.8676 81.1042 24.2616 81.1042H37.1529C37.4237 81.1042 37.6084 81.1905 37.707 81.3632C37.83 81.5359 37.8917 81.8196 37.8917 82.2143V82.8063C37.8917 83.201 37.83 83.4847 37.707 83.6574C37.6084 83.8301 37.4237 83.9164 37.1529 83.9164H26.404V92.3533H36.0447C36.3156 92.3533 36.5003 92.4396 36.5988 92.6123C36.7219 92.785 36.7835 93.0687 36.7835 93.4634V94.0555C36.7835 94.4502 36.7219 94.7338 36.5988 94.9065C36.5003 95.0792 36.3156 95.1656 36.0447 95.1656H26.404V104.194H37.1899C37.4606 104.194 37.6453 104.281 37.7439 104.453C37.8669 104.626 37.9286 104.91 37.9286 105.305V105.897C37.9286 106.291 37.8669 106.575 37.7439 106.748C37.6453 106.92 37.4606 107.007 37.1899 107.007H24.2616ZM48.7107 107.229C47.2332 107.229 45.8665 107.056 44.6106 106.711C43.3548 106.365 42.4066 105.946 41.7664 105.453C41.2985 105.107 41.0646 104.799 41.0646 104.528C41.0646 104.231 41.2246 103.824 41.5448 103.306C41.8895 102.788 42.1602 102.529 42.3574 102.529C42.4557 102.529 42.7143 102.653 43.1331 102.899C43.8963 103.319 44.7089 103.676 45.571 103.972C46.4575 104.268 47.504 104.416 48.7107 104.416C50.1387 104.416 51.2963 104.022 52.1828 103.232C53.0937 102.418 53.5495 101.358 53.5495 100.05C53.5495 99.1373 53.3032 98.3849 52.8108 97.7928C52.318 97.1761 51.7149 96.695 51.0008 96.3497C50.3112 95.9797 49.3017 95.5356 47.972 95.0176C46.5436 94.4502 45.4107 93.9321 44.5737 93.4634C43.7363 92.9947 43.0223 92.304 42.4313 91.3912C41.8403 90.4538 41.5448 89.2327 41.5448 87.7278C41.5448 86.3957 41.8773 85.2116 42.5421 84.1755C43.2314 83.1394 44.1918 82.3376 45.4233 81.7702C46.6791 81.1782 48.1197 80.8821 49.745 80.8821C50.582 80.8821 51.518 81.0055 52.5522 81.2522C53.5865 81.4742 54.3865 81.7826 54.9532 82.1773C55.4455 82.4733 55.6919 82.794 55.6919 83.1394C55.6919 83.4107 55.5316 83.8054 55.2117 84.3235C54.9162 84.8415 54.682 85.1006 54.5099 85.1006C54.3865 85.1006 54.2019 85.0389 53.9559 84.9155C53.7342 84.7922 53.5865 84.7058 53.5126 84.6565C52.2811 84.0151 51.0009 83.6944 49.6711 83.6944C48.2427 83.6944 47.0855 84.0645 46.199 84.8045C45.3368 85.5446 44.9061 86.5684 44.9061 87.8758C44.9061 88.7146 45.1152 89.393 45.5341 89.911C45.9773 90.4291 46.4697 90.8238 47.0116 91.0952C47.5778 91.3419 48.5504 91.7365 49.9297 92.2793C51.4072 92.8467 52.6135 93.4017 53.5495 93.9444C54.4852 94.4625 55.2731 95.2273 55.9136 96.2387C56.5784 97.2255 56.9109 98.4959 56.9109 100.05C56.9109 102.27 56.1721 104.022 54.6946 105.305C53.2171 106.587 51.2225 107.229 48.7107 107.229ZM68.2138 107.081C67.2286 107.081 66.7363 106.809 66.7363 106.267V83.9164H59.6442C59.3979 83.9164 59.2132 83.8301 59.0902 83.6574C58.9668 83.4847 58.9055 83.201 58.9055 82.8063V82.2143C58.9055 81.8196 58.9668 81.5359 59.0902 81.3632C59.2132 81.1905 59.3979 81.1042 59.6442 81.1042H76.968C77.2387 81.1042 77.4234 81.1905 77.522 81.3632C77.6451 81.5359 77.7067 81.8196 77.7067 82.2143V82.8063C77.7067 83.201 77.6451 83.4847 77.522 83.6574C77.4234 83.8301 77.2387 83.9164 76.968 83.9164H69.9868V106.267C69.9868 106.809 69.494 107.081 68.5093 107.081H68.2138ZM88.4859 107.081C87.5011 107.081 87.0084 106.809 87.0084 106.267V83.9164H79.9163C79.6703 83.9164 79.4856 83.8301 79.3623 83.6574C79.2393 83.4847 79.1776 83.201 79.1776 82.8063V82.2143C79.1776 81.8196 79.2393 81.5359 79.3623 81.3632C79.4856 81.1905 79.6703 81.1042 79.9163 81.1042H97.2401C97.5112 81.1042 97.6959 81.1905 97.7941 81.3632C97.9175 81.5359 97.9788 81.8196 97.9788 82.2143V82.8063C97.9788 83.201 97.9175 83.4847 97.7941 83.6574C97.6959 83.8301 97.5112 83.9164 97.2401 83.9164H90.2589V106.267C90.2589 106.809 89.7665 107.081 88.7814 107.081H88.4859ZM99.2639 107.081C98.2053 107.081 97.6756 106.871 97.6756 106.452C97.6756 106.328 97.7125 106.156 97.7864 105.934L106.541 81.6222C106.688 81.2275 107.181 81.0302 108.018 81.0302H109.089C109.976 81.0302 110.469 81.2275 110.567 81.6222L119.321 105.971C119.395 106.143 119.432 106.304 119.432 106.452C119.432 106.871 118.902 107.081 117.843 107.081H117.548C116.686 107.081 116.194 106.883 116.07 106.489L113.891 100.42H103.032L100.926 106.489C100.803 106.883 100.311 107.081 99.4486 107.081H99.2639ZM112.894 97.6078L109.015 86.5807C108.892 86.186 108.745 85.4706 108.572 84.4345H108.498C108.301 85.4213 108.117 86.1367 107.944 86.5807L104.066 97.6078H112.894ZM128.899 107.229C127.421 107.229 126.054 107.056 124.798 106.711C123.543 106.365 122.594 105.946 121.954 105.453C121.486 105.107 121.252 104.799 121.252 104.528C121.252 104.231 121.412 103.824 121.733 103.306C122.077 102.788 122.348 102.529 122.545 102.529C122.644 102.529 122.902 102.653 123.321 102.899C124.084 103.319 124.897 103.676 125.759 103.972C126.645 104.268 127.692 104.416 128.899 104.416C130.327 104.416 131.484 104.022 132.371 103.232C133.282 102.418 133.737 101.358 133.737 100.05C133.737 99.1373 133.491 98.3849 132.999 97.7928C132.506 97.1761 131.903 96.695 131.189 96.3497C130.499 95.9797 129.49 95.5356 128.16 95.0176C126.731 94.4502 125.599 93.9321 124.761 93.4634C123.924 92.9947 123.21 92.304 122.619 91.3912C122.028 90.4538 121.733 89.2327 121.733 87.7278C121.733 86.3957 122.065 85.2116 122.73 84.1755C123.419 83.1394 124.38 82.3376 125.611 81.7702C126.867 81.1782 128.308 80.8821 129.933 80.8821C130.77 80.8821 131.706 81.0055 132.74 81.2522C133.774 81.4742 134.574 81.7826 135.141 82.1773C135.633 82.4733 135.88 82.794 135.88 83.1394C135.88 83.4107 135.719 83.8054 135.4 84.3235C135.104 84.8415 134.87 85.1006 134.698 85.1006C134.574 85.1006 134.39 85.0389 134.144 84.9155C133.922 84.7922 133.774 84.7058 133.7 84.6565C132.469 84.0151 131.189 83.6944 129.859 83.6944C128.431 83.6944 127.273 84.0645 126.387 84.8045C125.525 85.5446 125.094 86.5684 125.094 87.8758C125.094 88.7146 125.303 89.393 125.722 89.911C126.165 90.4291 126.658 90.8238 127.199 91.0952C127.766 91.3419 128.738 91.7365 130.117 92.2793C131.595 92.8467 132.801 93.4017 133.737 93.9444C134.673 94.4625 135.461 95.2273 136.101 96.2387C136.766 97.2255 137.099 98.4959 137.099 100.05C137.099 102.27 136.36 104.022 134.882 105.305C133.405 106.587 131.41 107.229 128.899 107.229ZM143.415 107.081C142.43 107.081 141.938 106.809 141.938 106.267V81.8442C141.938 81.3015 142.43 81.0302 143.415 81.0302H143.711C144.695 81.0302 145.188 81.3015 145.188 81.8442V93.1674H145.336L154.422 81.5482C154.693 81.2028 155.358 81.0302 156.417 81.0302H156.786C157.205 81.0302 157.525 81.0795 157.747 81.1782C157.968 81.2522 158.079 81.3632 158.079 81.5112C158.079 81.7332 157.956 81.9799 157.71 82.2513L148.475 93.7964L159.668 105.971C159.889 106.217 160 106.415 160 106.563C160 106.76 159.877 106.896 159.631 106.97C159.384 107.044 158.966 107.081 158.375 107.081H157.931C157.39 107.081 156.959 107.056 156.639 107.007C156.343 106.957 156.097 106.822 155.9 106.6L145.336 94.6845H145.188V106.267C145.188 106.809 144.695 107.081 143.711 107.081H143.415Z" fill="black" fill-opacity="0.87"/>
</svg>
